<svg xmlns="http://www.w3.org/2000/svg" version="1.1" xmlns:xlink="http://www.w3.org/1999/xlink" width="556.525" height="556.792"><svg xmlns="http://www.w3.org/2000/svg" width="556.525" height="556.792" viewBox="0 0 556.525 556.792">
  <g id="SvgjsG1020" transform="translate(-181.7 557.567)">
    <path id="SvgjsPath1019" data-name="Path 71" d="M445-557.4c-104.9,5.8-198.9,70.9-240.5,166.8-15.7,36.2-22.8,70.8-22.8,111.6,0,33.1,3.7,57.1,13.4,86.4C229.3-88.6,319.2-15.1,428.5-1.9c12.8,1.5,50,1.5,63,0,108.6-13,198.6-86.2,233-189.5a311.4,311.4,0,0,0,12.6-56.1c1.5-13,1.5-50.2,0-63-4.2-35-16.2-72.8-32.4-102-43.4-78.6-120.8-131.6-208.8-142.9C484.1-556.9,456.3-558,445-557.4Zm53,19.9c89.8,14.2,164.7,71.4,201,153.4,5.2,11.7,11.6,29.9,10.8,30.7-.7.6-23,6.6-23.3,6.2-.1-.2-1.6-4.6-3.4-9.8-16.7-48.7-55.5-95.4-101.5-122.3l-7.9-4.6-.2-5.4a17.522,17.522,0,0,0-29.6-12.6l-3.3,3.1-10.6-3q-64.05-18.45-127-1.7c-40.3,10.8-74,30.4-104,60.5a226.65,226.65,0,0,0-53.5,84.5c-3.7,10.3-9.5,32.4-9.5,36,.1,1.1,1.6-3.9,3.5-11A223.734,223.734,0,0,1,309-446.1c34.1-30,75.1-48.4,121.5-54.5,18.5-2.4,46.8-1.5,65.5,2,19.9,3.7,40.8,10.1,42,12.7,3.5,7.4,4.9,9.5,8,11.5a17.952,17.952,0,0,0,15.7,2.1l4.3-1.5,8.6,5.5a222.857,222.857,0,0,1,91.9,115.2c1.9,5.7,3.4,10.5,3.3,10.6-.2.1-5,1.5-10.7,2.9-5.7,1.5-10.9,3-11.6,3.2-.7.3-2-1.8-3.5-5.8C627.9-387,593.4-426.4,551.4-448c-28.7-14.7-55.6-21.2-88.4-21.2A183.622,183.622,0,0,0,377-449c-35.3,17.7-67.5,50.5-83.7,85.1-3.3,7-3.7,7.5-6.3,7.1-5.6-.8-13,5.8-13,11.6,0,3.1,2.5,7.7,5.2,9.6l2.2,1.5-2.2,9.5c-3,12.8-2.7,15.4.3,3.7,3.5-13.4,3.2-12.9,5.9-12.4,5.1,1,12.6-5.8,12.6-11.5,0-2.7-1.5-5.9-4.2-8.8-1.9-2.2-1.9-2.2.8-7.5,11.2-22.3,32.7-47.5,53.2-62.7,25.7-19,53.3-30.2,85.3-34.8,16.5-2.3,43.1-1.4,59.6,2,37.4,7.9,68.9,25.4,94.9,52.9A175.223,175.223,0,0,1,616.4-363c5.8,11.3,13.5,30.5,12.5,31.4-.2.2-5.1,1.6-10.8,3-5.7,1.5-10.9,3-11.5,3.2-.8.3-1.7-1-2.4-3.3-4.2-14.2-19.1-38-32.5-52-45-47-113.6-60.1-171.6-32.7A145.474,145.474,0,0,0,323.2-326c-3.4,10.8-5.8,21.8-4.8,22.7.3.3.6-.3.6-1.4,0-4,6.2-22.9,10.4-31.8,19.4-40.9,55-69.2,99.6-79,12-2.6,36.6-3.1,49.1-1,28.8,4.8,51.9,16,73.3,35.6,12.5,11.4,26,31,32.9,47.9,5.4,13.1,6,11.8-7.5,15.5l-11.7,3.2-4.9-10.1c-16.6-34.2-47.9-56.2-86.1-60.6a110.381,110.381,0,0,0-38.8,3c-7,1.9-7,1.9-10.9,0-4.5-2.4-7.3-2.5-11.7-.6a15.486,15.486,0,0,0-9.1,11c-1,3.7-2.3,5.5-8.1,10.3a114.6,114.6,0,0,0-23.6,28.1c-4.8,8.4-11.5,27.2-12.3,34.7-.5,4-.2,3.4,1.4-3,2.4-9.5,10.2-25.9,15.9-33.5,5.8-7.7,16.4-18.3,22.7-22.6l5.3-3.7,3.5,3.1c6.5,5.7,14.8,5.1,20.5-1.3,3-3.5,4.8-9.2,3.8-12-1.1-2.7,6.6-4,24.3-3.9,13.8,0,17.8.4,24.5,2.2a96.863,96.863,0,0,1,55,39.8c6,8.8,12.1,22.2,10.8,23.4-.4.4-5.9,2.1-12.1,3.7l-11.3,3-1-2.4A66.536,66.536,0,0,0,518-314c-20-29.5-58.7-38.3-88.4-20.2-14.2,8.6-25.6,25.1-28.1,40.7-.5,3.6-.4,3.5,1.4-1.5,3.3-9.2,7.1-15.2,14.5-22.5,11.4-11.3,23.7-16.5,39.3-16.5,15.1,0,27.6,5.2,38.3,16,6.9,6.9,13.2,17.3,11.5,18.8-.6.5-7.9,2.8-16.3,5l-15.3,4.1-4.5-3.2a17.856,17.856,0,0,0-25.6,5.1c-3.1,5.1-3.1,13.3,0,18.4,8.2,13.2,28.6,10.2,32.3-4.7,1.1-4.2,1.4-4.5,6.3-5.9,2.8-.8,24.5-6.6,48.1-13,23.7-6.3,74.2-19.9,112.4-30.1,38.1-10.2,69.5-18.5,69.6-18.3.4.4,4.2,19.9,5.7,29.3.8,5,1.3,17.6,1.3,33.5,0,27.3-1.1,37.6-6.1,59-23.2,99.5-103.1,177-203,196.9-20.9,4.2-37.1,5.5-59.8,4.8-49.5-1.5-93.9-15.5-134.8-42.5C254-102.3,213.2-166.2,201.3-242c-2.5-16.3-2.5-57.7,0-74,9-57.5,34.1-107.4,74.2-147.5,41.6-41.6,95-67.5,154.2-75C444.3-540.4,483.6-539.8,498-537.5Z" fill="#50b4ee"></path>
    <path id="SvgjsPath1018" data-name="Path 72" d="M235.2-317.5c0,1.6.2,2.2.5,1.2a7.556,7.556,0,0,0,0-3C235.4-319.9,235.2-319.2,235.2-317.5Z" fill="#50b4ee"></path>
    <path id="SvgjsPath1017" data-name="Path 73" d="M234.2-311c0,1.4.2,1.9.5,1.2a5.278,5.278,0,0,0,0-2.5C234.4-312.9,234.2-312.4,234.2-311Z" fill="#50b4ee"></path>
    <path id="SvgjsPath1016" data-name="Path 74" d="M276.2-308.5c0,1.6.2,2.2.5,1.2a7.557,7.557,0,0,0,0-3C276.4-310.9,276.2-310.2,276.2-308.5Z" fill="#50b4ee"></path>
    <path id="SvgjsPath1015" data-name="Path 75" d="M233.2-304.5c0,1.6.2,2.2.5,1.2a7.556,7.556,0,0,0,0-3C233.4-306.9,233.2-306.2,233.2-304.5Z" fill="#50b4ee"></path>
    <path id="SvgjsPath1014" data-name="Path 76" d="M275.2-302c0,1.4.2,1.9.5,1.2a5.279,5.279,0,0,0,0-2.5C275.4-303.9,275.2-303.4,275.2-302Z" fill="#50b4ee"></path>
    <path id="SvgjsPath1013" data-name="Path 77" d="M317.2-299c0,1.4.2,1.9.5,1.2a5.279,5.279,0,0,0,0-2.5C317.4-300.9,317.2-300.4,317.2-299Z" fill="#50b4ee"></path>
    <path id="SvgjsPath1012" data-name="Path 78" d="M358.1-289.4c0,1.1.3,1.4.6.6a2.026,2.026,0,0,0-.1-1.9C358.3-291.1,358-290.5,358.1-289.4Z" fill="#50b4ee"></path>
  </g>
</svg><style>@media (prefers-color-scheme: light) { :root { filter: none; } }
@media (prefers-color-scheme: dark) { :root { filter: none; } }
</style></svg>