<svg data-v-fde0c5aa="" xmlns="http://www.w3.org/2000/svg" viewBox="0 0 300 300" class="font"><!----><defs data-v-fde0c5aa=""><!----></defs><rect data-v-fde0c5aa="" fill="transparent" x="0" y="0" width="300px" height="300px" class="logo-background-square"></rect><defs data-v-fde0c5aa=""><linearGradient data-v-fde0c5aa="" gradientTransform="rotate(25)" id="8b349f8a-257b-4078-8171-e0e5f41efeaf" x1="0%" y1="0%" x2="100%" y2="0%"><stop data-v-fde0c5aa="" offset="0%" stop-color="#0076DD" stop-opacity="1"></stop><stop data-v-fde0c5aa="" offset="100%" stop-color="#00CDE9" stop-opacity="1"></stop></linearGradient></defs><g data-v-fde0c5aa="" id="f718bca1-3c33-4ecf-bb86-a242e187cddc" fill="url(#8b349f8a-257b-4078-8171-e0e5f41efeaf)" transform="matrix(2.67574820175194,0,0,2.67574820175194,38.34103610215484,127.7110183214978)"><path d="M11.05 13.51L9.18 13.51L8.34 6.94L5.84 11.45L3.32 6.96L2.48 13.51L0.62 13.51L1.97 3.71L3.44 3.71L5.84 8.18L8.22 3.71L9.69 3.71L11.05 13.51ZM13.90 13.65Q13.03 13.65 12.45 13.08Q11.87 12.52 11.87 11.55L11.87 11.55Q11.87 10.64 12.53 10.09Q13.19 9.53 14.08 9.30Q14.98 9.07 15.81 9.04L15.81 9.04Q15.78 8.43 15.49 8.16Q15.20 7.90 14.55 7.90L14.55 7.90Q14.08 7.90 13.64 8.02Q13.20 8.15 12.63 8.43L12.63 8.43L12.47 7.01Q13.75 6.40 15.02 6.40L15.02 6.40Q16.25 6.40 16.91 7.07Q17.56 7.74 17.56 9.21L17.56 9.21L17.56 11.10Q17.56 11.63 17.61 11.87Q17.65 12.10 17.77 12.16Q17.89 12.22 18.17 12.22L18.17 12.22L18.40 12.22L18.24 13.65L17.61 13.65Q17.04 13.65 16.65 13.43Q16.25 13.22 16.04 12.84L16.04 12.84Q15.71 13.22 15.13 13.43Q14.55 13.65 13.90 13.65L13.90 13.65ZM14.63 12.32Q14.90 12.32 15.23 12.19Q15.57 12.05 15.82 11.82L15.82 11.82L15.82 10.22Q14.98 10.26 14.34 10.58Q13.69 10.91 13.69 11.48L13.69 11.48Q13.69 11.91 13.92 12.12Q14.14 12.32 14.63 12.32L14.63 12.32ZM19.36 13.51L19.36 6.51L20.99 6.51L21.03 7.25Q21.34 6.90 21.82 6.64Q22.30 6.37 22.83 6.37L22.83 6.37Q23.00 6.37 23.14 6.40L23.14 6.40L23.02 8.11Q22.75 8.04 22.41 8.04L22.41 8.04Q21.98 8.04 21.62 8.24Q21.25 8.44 21.10 8.74L21.10 8.74L21.10 13.51L19.36 13.51ZM23.97 13.51L23.97 3.01L25.70 3.01L25.70 9.38L27.87 6.51L29.83 6.51L27.29 9.87L29.89 13.51L27.93 13.51L25.70 10.40L25.70 13.51L23.97 13.51ZM33.85 13.65Q32.63 13.65 31.77 13.15Q30.91 12.66 30.48 11.82Q30.06 10.99 30.06 9.97L30.06 9.97Q30.06 8.99 30.46 8.18Q30.87 7.36 31.64 6.88Q32.41 6.40 33.47 6.40L33.47 6.40Q34.45 6.40 35.13 6.80Q35.81 7.21 36.16 7.90Q36.50 8.58 36.50 9.44L36.50 9.44Q36.50 9.86 36.39 10.39L36.39 10.39L31.86 10.39Q32.00 11.31 32.59 11.77Q33.18 12.22 34.01 12.22L34.01 12.22Q35.14 12.22 36.11 11.65L36.11 11.65L36.19 13.12Q35.74 13.36 35.15 13.50Q34.55 13.65 33.85 13.65L33.85 13.65ZM31.91 9.21L34.73 9.21Q34.73 8.67 34.43 8.25Q34.12 7.83 33.47 7.83L33.47 7.83Q32.83 7.83 32.44 8.20Q32.05 8.58 31.91 9.21L31.91 9.21ZM39.97 13.65Q39.05 13.65 38.57 13.11Q38.09 12.57 38.09 11.82L38.09 11.82L38.09 7.94L37.10 7.94L37.25 6.51L38.09 6.51L38.09 4.97L39.83 4.79L39.83 6.51L41.37 6.51L41.37 7.94L39.83 7.94L39.83 11.10Q39.83 11.66 39.89 11.88Q39.96 12.10 40.16 12.16Q40.36 12.22 40.89 12.22L40.89 12.22L41.37 12.22L41.22 13.65L39.97 13.65ZM47.74 13.51L44.98 3.71L46.84 3.71L48.80 10.67L50.99 3.71L52.23 3.71L54.50 10.49L56.38 3.71L58.24 3.71L55.37 13.51L53.79 13.51L51.60 6.97L49.43 13.51L47.74 13.51ZM60.14 13.65Q59.28 13.65 58.70 13.08Q58.11 12.52 58.11 11.55L58.11 11.55Q58.11 10.64 58.77 10.09Q59.43 9.53 60.33 9.30Q61.22 9.07 62.05 9.04L62.05 9.04Q62.02 8.43 61.73 8.16Q61.45 7.90 60.79 7.90L60.79 7.90Q60.33 7.90 59.88 8.02Q59.44 8.15 58.87 8.43L58.87 8.43L58.72 7.01Q59.99 6.40 61.26 6.40L61.26 6.40Q62.50 6.40 63.15 7.07Q63.80 7.74 63.80 9.21L63.80 9.21L63.80 11.10Q63.80 11.63 63.85 11.87Q63.90 12.10 64.02 12.16Q64.13 12.22 64.41 12.22L64.41 12.22L64.64 12.22L64.48 13.65L63.85 13.65Q63.28 13.65 62.89 13.43Q62.50 13.22 62.29 12.84L62.29 12.84Q61.95 13.22 61.37 13.43Q60.79 13.65 60.14 13.65L60.14 13.65ZM60.87 12.32Q61.14 12.32 61.47 12.19Q61.81 12.05 62.06 11.82L62.06 11.82L62.06 10.22Q61.22 10.26 60.58 10.58Q59.93 10.91 59.93 11.48L59.93 11.48Q59.93 11.91 60.16 12.12Q60.38 12.32 60.87 12.32L60.87 12.32ZM67.77 13.65Q66.85 13.65 66.37 13.11Q65.90 12.57 65.90 11.82L65.90 11.82L65.90 7.94L64.90 7.94L65.06 6.51L65.90 6.51L65.90 4.97L67.63 4.79L67.63 6.51L69.17 6.51L69.17 7.94L67.63 7.94L67.63 11.10Q67.63 11.66 67.70 11.88Q67.76 12.10 67.96 12.16Q68.17 12.22 68.70 12.22L68.70 12.22L69.17 12.22L69.02 13.65L67.77 13.65ZM73.56 13.65Q72.39 13.65 71.56 13.17Q70.73 12.68 70.31 11.86Q69.89 11.03 69.89 10.02L69.89 10.02Q69.89 9.00 70.31 8.17Q70.73 7.34 71.57 6.85Q72.41 6.37 73.61 6.37L73.61 6.37Q74.69 6.37 75.49 6.82L75.49 6.82L75.35 8.22Q74.59 7.83 73.78 7.83L73.78 7.83Q72.79 7.83 72.23 8.43Q71.67 9.03 71.67 10.02L71.67 10.02Q71.67 10.98 72.24 11.60Q72.81 12.22 73.77 12.22L73.77 12.22Q74.56 12.22 75.36 11.76L75.36 11.76L75.52 13.23Q75.14 13.43 74.63 13.54Q74.12 13.65 73.56 13.65L73.56 13.65ZM80.21 6.40Q81.54 6.40 82.19 7.26Q82.84 8.12 82.84 9.62L82.84 9.62L82.84 13.51L81.10 13.51L81.10 9.74Q81.10 8.75 80.78 8.29Q80.46 7.83 79.76 7.83L79.76 7.83Q78.93 7.83 78.40 8.43L78.40 8.43L78.40 13.51L76.66 13.51L76.66 3.01L78.40 3.01L78.40 6.96Q78.82 6.69 79.25 6.54Q79.69 6.40 80.21 6.40L80.21 6.40Z"></path></g><!----><!----></svg>