<svg xmlns="http://www.w3.org/2000/svg" width="460" height="280" viewBox="0 0 460 280" role="img" aria-labelledby="title desc">
  <title id="title">Performance dashboard illustration</title>
  <desc id="desc">Stylised dashboard with equity curve and metrics cards.</desc>
  <defs>
    <linearGradient id="bg" x1="0%" y1="0%" x2="100%" y2="100%">
      <stop offset="0%" stop-color="#1d4ed8" stop-opacity="0.15" />
      <stop offset="100%" stop-color="#0ea5e9" stop-opacity="0.25" />
    </linearGradient>
    <linearGradient id="curve" x1="0%" y1="0%" x2="100%" y2="0%">
      <stop offset="0%" stop-color="#38bdf8" />
      <stop offset="100%" stop-color="#2563eb" />
    </linearGradient>
  </defs>
  <rect x="0" y="0" width="460" height="280" rx="24" fill="#ffffff" />
  <rect x="12" y="12" width="436" height="256" rx="20" fill="url(#bg)" />
  <rect x="36" y="44" width="240" height="44" rx="12" fill="#ffffff" opacity="0.9" />
  <rect x="292" y="44" width="120" height="44" rx="12" fill="#ffffff" opacity="0.75" />
  <rect x="36" y="214" width="120" height="44" rx="12" fill="#0f172a" opacity="0.85" />
  <rect x="172" y="214" width="120" height="44" rx="12" fill="#1e293b" opacity="0.7" />
  <polyline points="40,188 78,156 118,170 156,140 196,152 236,124 276,142 316,108 356,132 396,96 436,118" fill="none" stroke="url(#curve)" stroke-width="8" stroke-linecap="round" stroke-linejoin="round" />
  <circle cx="78" cy="156" r="6" fill="#1d4ed8" />
  <circle cx="156" cy="140" r="6" fill="#1d4ed8" />
  <circle cx="236" cy="124" r="6" fill="#1d4ed8" />
  <circle cx="316" cy="108" r="6" fill="#1d4ed8" />
  <circle cx="396" cy="96" r="6" fill="#1d4ed8" />
  <rect x="320" y="214" width="120" height="44" rx="12" fill="#1f2937" opacity="0.6" />
  <rect x="292" y="108" width="116" height="72" rx="14" fill="#ffffff" opacity="0.9" />
  <rect x="304" y="122" width="92" height="12" rx="6" fill="#2563eb" opacity="0.7" />
  <rect x="304" y="140" width="72" height="12" rx="6" fill="#2563eb" opacity="0.5" />
  <rect x="304" y="158" width="56" height="12" rx="6" fill="#2563eb" opacity="0.35" />
</svg>
