<svg width="420" height="220" viewBox="0 0 420 220" fill="none" xmlns="http://www.w3.org/2000/svg">
  <rect width="420" height="220" rx="20" fill="#0B1220"/>
  <path d="M30 180 C80 150 110 135 150 130 C190 125 220 140 250 100 C280 72 320 70 360 60" stroke="#34D399" stroke-width="4" stroke-linecap="round" fill="none"/>
  <path d="M30 200 C70 175 110 165 150 160 C190 155 230 140 270 110 C305 88 340 85 380 80" stroke="#8B5CF6" stroke-width="2" stroke-dasharray="6 6" fill="none"/>
  <rect x="112" y="134" width="120" height="36" rx="11" fill="rgba(52,211,153,0.22)" stroke="#34D399" stroke-width="2"/>
  <text x="124" y="156" fill="#ECFDF5" font-family="'Inter', sans-serif" font-size="12" font-weight="600">VWAP Confluence</text>
  <rect x="250" y="72" width="120" height="36" rx="11" fill="rgba(79,70,229,0.22)" stroke="#8B5CF6" stroke-width="2"/>
  <text x="262" y="94" fill="#E0E7FF" font-family="'Inter', sans-serif" font-size="12" font-weight="600">Liquidity Pocket</text>
  <line x1="112" y1="172" x2="232" y2="172" stroke="#F97316" stroke-width="3" stroke-linecap="round"/>
  <text x="112" y="188" fill="#F97316" font-family="'Inter', sans-serif" font-size="11" font-weight="600">Stop 47.80 (1.1 ATR)</text>
  <text x="30" y="36" fill="#ECFDF5" font-family="'Inter', sans-serif" font-size="16" font-weight="700">Trend Pullback Continuation</text>
  <text x="30" y="56" fill="#A5B4FC" font-family="'Inter', sans-serif" font-size="12">RR 2.6x · Timeframe 4H · Catalyst Earnings + Liquidity rotation</text>
</svg>
