<svg width="420" height="220" viewBox="0 0 420 220" fill="none" xmlns="http://www.w3.org/2000/svg">
  <rect width="420" height="220" rx="20" fill="#0B1220"/>
  <path d="M30 160 L80 150 L130 148 L180 140 L230 135 L280 110 L330 96 L380 70" stroke="#38BDF8" stroke-width="4" stroke-linecap="round" fill="none"/>
  <path d="M30 175 L80 170 L130 168 L180 160 L230 158 L280 150 L330 142 L380 138" stroke="#FACC15" stroke-width="2" stroke-linecap="round" stroke-dasharray="8 6" fill="none"/>
  <rect x="250" y="62" width="110" height="36" rx="10" fill="rgba(14,165,233,0.18)" stroke="#38BDF8" stroke-width="2"/>
  <text x="260" y="84" fill="#E0F2FE" font-family="'Inter', sans-serif" font-size="12" font-weight="600">Target Zone</text>
  <rect x="150" y="132" width="90" height="32" rx="10" fill="rgba(56,189,248,0.18)" stroke="#38BDF8" stroke-width="2"/>
  <text x="160" y="153" fill="#E0F2FE" font-family="'Inter', sans-serif" font-size="12" font-weight="600">Entry</text>
  <line x1="150" y1="164" x2="240" y2="164" stroke="#F97316" stroke-width="3" stroke-linecap="round"/>
  <text x="150" y="182" fill="#F97316" font-family="'Inter', sans-serif" font-size="11" font-weight="600">Stop 191.20</text>
  <text x="30" y="36" fill="#E0F2FE" font-family="'Inter', sans-serif" font-size="16" font-weight="700">Opening Range Breakout</text>
  <text x="30" y="56" fill="#94A3B8" font-family="'Inter', sans-serif" font-size="12">RR 3.4x · Volume +48% · Bias LONG</text>
</svg>
