<svg width="420" height="220" viewBox="0 0 420 220" fill="none" xmlns="http://www.w3.org/2000/svg">
  <rect width="420" height="220" rx="20" fill="#0B1220"/>
  <path d="M40 170 L90 150 L140 140 L190 118 L240 112 L290 90 L340 96 L390 82" stroke="#F59E0B" stroke-width="3.5" stroke-linecap="round" fill="none"/>
  <path d="M40 190 L90 180 L140 175 L190 150 L240 146 L290 128 L340 130 L390 118" stroke="#38BDF8" stroke-width="2" stroke-linecap="round" stroke-dasharray="10 6" fill="none"/>
  <path d="M40 200 L90 208 L140 210 L190 206 L240 208" stroke="#94A3B8" stroke-width="1.5" stroke-dasharray="4 6" fill="none"/>
  <rect x="48" y="70" width="126" height="38" rx="11" fill="rgba(245,158,11,0.18)" stroke="#FBBF24" stroke-width="2"/>
  <text x="58" y="94" fill="#FFE6B3" font-family="'Inter', sans-serif" font-size="12" font-weight="600">Macro Breadth > 65%</text>
  <rect x="226" y="46" width="150" height="36" rx="11" fill="rgba(56,189,248,0.16)" stroke="#38BDF8" stroke-width="2"/>
  <text x="238" y="68" fill="#E0F2FE" font-family="'Inter', sans-serif" font-size="12" font-weight="600">Credit spread tightening</text>
  <line x1="226" y1="128" x2="376" y2="128" stroke="#34D399" stroke-width="3" stroke-linecap="round"/>
  <text x="226" y="146" fill="#BBF7D0" font-family="'Inter', sans-serif" font-size="11" font-weight="600">Risk Band 1.5 ATR</text>
  <text x="40" y="36" fill="#FDE68A" font-family="'Inter', sans-serif" font-size="16" font-weight="700">Macro Trend Alignment</text>
  <text x="40" y="56" fill="#CBD5F5" font-family="'Inter', sans-serif" font-size="12">Asia Growth Leader · Sector Rotation + Credit Support · Bias LONG</text>
</svg>
