<svg data-v-423bf9ae="" xmlns="http://www.w3.org/2000/svg" viewBox="0 0 NaN NaN" class="iconAbove"><!----><!----><!----><g data-v-423bf9ae="" id="2a476cb8-4b85-4d2e-85de-45b9ac0a8ae9" fill="white" transform="matrix(Infinity,0,0,Infinity,0,0)"><path d=""></path></g><!----><g data-v-423bf9ae="" id="6cef14e6-c5c8-4bd9-abb4-4868da69219a" transform="matrix(1.033322228325738,0,0,1.033322228325738,-1.6605799141818594,-3.1656283429070413)" stroke="none" fill="white"><path d="M49.834 6.501c23.986 0 43.5 19.514 43.5 43.499 0 23.986-19.514 43.5-43.5 43.5S6.334 73.986 6.334 50c0-23.985 19.514-43.499 43.5-43.499m0-3c-25.682 0-46.5 20.817-46.5 46.499s20.818 46.5 46.5 46.5 46.5-20.818 46.5-46.5-20.818-46.499-46.5-46.499z"></path><circle cx="49.834" cy="50" r="3"></circle><circle cx="20.834" cy="39" r="2"></circle><circle cx="42.834" cy="35" r="2.5"></circle><circle cx="65.834" cy="15" r="3"></circle><path d="M92.973 37.209l.518 1.932-43.466 11.646-.517-1.932z"></path><path d="M11.834 50l.045-1.226.054-1.472c.022-.58.022-1.248.154-1.986l.341-2.458c.107-.899.413-1.831.636-2.851.132-.504.229-1.038.402-1.564l.566-1.615.598-1.703.796-1.713c.278-.581.536-1.188.846-1.782l1.04-1.765c.657-1.231 1.549-2.363 2.414-3.565.413-.617.921-1.17 1.426-1.737l1.53-1.729 1.725-1.611.876-.818c.303-.262.633-.495.951-.746l1.943-1.494c.68-.462 1.396-.884 2.1-1.333l1.066-.667c.363-.21.749-.382 1.125-.576l2.282-1.137 2.399-.922 1.209-.458 1.25-.34 2.513-.673 2.573-.429c.43-.066.858-.153 1.29-.203l1.302-.084 2.637-.16c1.7.051 3.377.05 5.124.307 3.437.431 6.746 1.224 9.786 2.499.779.267 1.504.643 2.234.986.728.352 1.465.67 2.137 1.091l2.032 1.182 1.888 1.307c2.438 1.779 4.585 3.701 6.318 5.699.433.499.881.969 1.275 1.464l1.116 1.481c.761.941 1.318 1.947 1.91 2.847.611.891 1.008 1.825 1.465 2.639.46.814.772 1.614 1.079 2.326.647 1.412.998 2.581 1.261 3.37l.401 1.211-2.895.789-.342-1.127c-.223-.735-.514-1.827-1.081-3.149-.266-.667-.531-1.419-.941-2.185-.405-.765-.744-1.648-1.293-2.49-.529-.851-1.019-1.807-1.706-2.701l-1.004-1.413c-.355-.473-.764-.922-1.155-1.4-1.569-1.916-3.533-3.771-5.782-5.51l-1.743-1.281-1.886-1.166c-.624-.417-1.312-.734-1.99-1.085-.682-.344-1.357-.722-2.088-.992-2.832-1.287-5.997-2.13-9.204-2.624-1.575-.287-3.29-.34-4.986-.436l-2.465.088-1.253.045c-.416.036-.828.109-1.243.162l-2.487.343-2.438.583-1.217.294-1.178.411-2.346.828-2.239 1.041c-.369.178-.75.334-1.107.528l-1.052.62c-.695.417-1.403.809-2.078 1.24l-1.932 1.404c-.316.236-.646.455-.948.702l-.876.775-1.73 1.529-1.543 1.651c-.511.542-1.025 1.071-1.446 1.666-.88 1.156-1.791 2.246-2.469 3.439l-1.073 1.712c-.321.577-.592 1.168-.881 1.734l-.834 1.672-.637 1.667-.605 1.585c-.187.518-.296 1.042-.441 1.54-.248 1.004-.58 1.927-.709 2.814l-.406 2.433c-.152.732-.17 1.4-.208 1.979l-.095 1.471c-.056.796-.083 1.222-.083 1.222z"></path><path d="M18.834 50l.034-1 .041-1.201c.017-.473.015-1.017.12-1.62l.272-2.006c.084-.734.332-1.495.511-2.328.106-.412.185-.848.324-1.278l.458-1.32.483-1.392.646-1.401c.225-.475.436-.971.686-1.458l.844-1.444c.534-1.007 1.258-1.935 1.962-2.918.336-.505.749-.959 1.161-1.424l1.246-1.417 1.405-1.321.715-.671c.246-.217.516-.407.774-.614l1.585-1.227c.554-.382 1.139-.728 1.713-1.097l.87-.548c.296-.175.612-.315.919-.475l1.864-.936 1.96-.763.988-.379 1.022-.282 2.056-.559 2.105-.358c.352-.056.703-.125 1.056-.171l1.066-.072 2.166-.14c1.388.039 2.75.03 4.19.236 2.824.341 5.536.984 8.035 2.019 2.487 1.024 4.828 2.234 6.817 3.72 2.009 1.452 3.776 3.024 5.207 4.658.357.408.727.794 1.052 1.199l.923 1.213c.628.771 1.091 1.594 1.579 2.333.505.73.835 1.496 1.213 2.164.381.668.642 1.324.896 1.909.537 1.158.83 2.119 1.049 2.767.218.648.333.995.333.995l-2.893.793-.274-.911c-.178-.594-.413-1.478-.868-2.547-.214-.54-.428-1.148-.758-1.767-.326-.619-.599-1.334-1.041-2.015-.427-.689-.821-1.462-1.376-2.187l-.81-1.145c-.287-.383-.615-.747-.932-1.135-1.267-1.553-2.853-3.059-4.67-4.47-1.8-1.445-3.942-2.64-6.235-3.679-2.29-1.048-4.858-1.74-7.452-2.145-1.269-.237-2.673-.282-4.054-.365l-1.994.067-1.018.033c-.337.032-.672.088-1.009.13l-2.02.272-1.98.469-.989.236-.957.333-1.908.667-1.822.84c-.3.144-.611.268-.901.427l-.856.501c-.566.338-1.144.652-1.692 1.004l-1.574 1.136c-.258.192-.527.367-.772.57l-.715.628-1.411 1.239-1.259 1.34c-.418.439-.836.87-1.18 1.352-.719.938-1.462 1.824-2.018 2.793l-.878 1.391c-.262.47-.484.95-.722 1.41-.232.463-.46.917-.684 1.36l-.522 1.356-.498 1.29c-.152.421-.243.849-.363 1.253-.205.818-.478 1.568-.585 2.291l-.337 1.981c-.125.596-.142 1.142-.175 1.613l-.081 1.199c-.04.652-.063.999-.063.999z"></path><path d="M25.834 50l.022-.774c.037-.503-.015-1.248.114-2.184l.203-1.555c.062-.57.251-1.159.387-1.806.081-.32.141-.657.246-.992l.35-1.025.37-1.081.495-1.089c.172-.369.335-.754.526-1.133l.649-1.124c.411-.784.968-1.507 1.512-2.273.533-.776 1.226-1.455 1.857-2.216l1.086-1.033c.362-.354.735-.702 1.152-1.004l1.228-.959c.428-.301.882-.57 1.327-.86.874-.613 1.875-1.025 2.834-1.538l1.522-.603.768-.299.795-.225 1.599-.444 1.639-.286.822-.139.831-.06 1.662-.118c1.145.027 2.142.01 3.291.166 2.213.253 4.327.745 6.285 1.542 1.948.788 3.783 1.725 5.345 2.877 1.578 1.125 2.967 2.349 4.095 3.621.281.318.571.619.829.934l.728.946c.494.602.861 1.243 1.247 1.82.722 1.182 1.29 2.258 1.671 3.181.425.906.66 1.657.834 2.165l.267.779-2.893.797-.206-.695c-.135-.453-.31-1.128-.654-1.945-.299-.834-.765-1.809-1.361-2.892-.322-.527-.622-1.12-1.043-1.674l-.614-.878c-.22-.292-.469-.572-.709-.87-.964-1.191-2.17-2.349-3.558-3.433-1.372-1.112-3.008-2.034-4.762-2.836-1.75-.81-3.721-1.352-5.702-1.668-.946-.187-2.091-.225-3.088-.294l-1.558.044-.782.021-.775.098-1.553.201-1.523.354-.761.179-.737.252-1.469.507c-.928.45-1.904.797-2.761 1.348-.437.258-.884.497-1.306.767l-1.217.869a9.806 9.806 0 00-1.15.918l-1.092.95c-.639.708-1.343 1.337-1.891 2.067-.559.72-1.135 1.401-1.567 2.147l-.683 1.07c-.203.362-.377.731-.562 1.086l-.533 1.048-.409 1.045-.389.995c-.118.325-.191.655-.285.967-.161.631-.375 1.211-.46 1.769l-.268 1.53c-.169.926-.149 1.675-.208 2.175l-.059.77z"></path><path d="M32.834 50l.011-.548c.023-.356-.019-.883.066-1.546.077-.665.158-1.48.396-2.387.086-.462.236-.938.41-1.435l.256-.77.344-.777.366-.809.455-.803c.288-.56.677-1.079 1.061-1.627.373-.557.863-1.044 1.309-1.59.514-.478.996-1.023 1.581-1.468 1.114-.963 2.435-1.743 3.826-2.434 1.427-.602 2.931-1.162 4.512-1.375.78-.181 1.582-.163 2.374-.25.836.009 1.514-.012 2.358.093 1.602.166 3.116.506 4.534 1.064 1.408.551 2.736 1.215 3.871 2.033 1.146.798 2.157 1.672 2.981 2.581.852.887 1.51 1.812 2.055 2.652.532.849.951 1.624 1.234 2.289.315.653.492 1.195.622 1.562l.198.563-2.889.807-.14-.479c-.09-.313-.207-.778-.44-1.343-.201-.577-.518-1.251-.924-2.001-.42-.742-.931-1.571-1.618-2.377-.66-.828-1.488-1.637-2.444-2.396-.945-.778-2.074-1.428-3.288-1.994-1.209-.571-2.584-.963-3.951-1.192-.64-.135-1.477-.17-2.157-.222-.719.04-1.456-.029-2.175.096-1.46.102-2.871.536-4.234 1.01-1.328.564-2.615 1.215-3.721 2.06-.581.385-1.064.875-1.585 1.299-.453.493-.954.93-1.342 1.441-.398.502-.807.98-1.116 1.502l-.488.749-.402.762-.382.735-.295.735c-.201.476-.377.933-.488 1.38-.29.878-.418 1.67-.536 2.325-.125.653-.116 1.184-.161 1.538l-.044.547z"></path><path d="M40 50v-.322c0-.209-.105-.517-.064-.909.037-.392.032-.875.162-1.413a5.52 5.52 0 01.203-.853c.084-.301.181-.611.324-.923.123-.322.274-.644.46-.967.165-.336.383-.651.606-.981a10.182 10.182 0 011.68-1.864c.657-.586 1.43-1.081 2.26-1.51.846-.387 1.749-.739 2.699-.893.47-.117.952-.126 1.431-.184l.045-.004.023-.002.09.003.083.002.167.005.333.01.663.02c.418-.021.935.119 1.412.206.489.09.97.195 1.385.382.427.174.871.307 1.265.516l1.138.66c.382.203.671.511.996.753.309.262.636.49.87.787.498.565.997 1.063 1.297 1.608.325.525.655.966.804 1.391l.556 1.299-2.883.828-.313-1c-.067-.336-.294-.679-.492-1.106-.174-.447-.526-.85-.858-1.336-.152-.257-.393-.45-.611-.681-.234-.212-.432-.495-.718-.678l-.848-.622c-.297-.203-.643-.336-.973-.519-.334-.201-.679-.305-1.03-.412-.361-.104-.676-.273-1.145-.303l-1.244-.168c-.408.009-.825-.033-1.234.028-.831.042-1.64.268-2.424.527-.768.301-1.51.667-2.158 1.136a9.304 9.304 0 00-1.72 1.547c-.238.284-.479.558-.665.855a6.32 6.32 0 00-.535.866 5.823 5.823 0 00-.412.847 5.487 5.487 0 00-.302.798c-.181.51-.264.969-.342 1.351-.081.381 0 .693-.031.9-.021.214.05.325.05.325z"></path></g><!----></svg>